<svg width="45" height="42" viewBox="0 0 45 42" fill="none" xmlns="http://www.w3.org/2000/svg">
<path d="M7.40622 41.1014C7.42213 41.1018 7.4378 41.1049 7.45231 41.1106C7.46683 41.1163 7.47989 41.1245 7.49074 41.1346L7.70885 41.3431C7.53955 41.5118 7.33029 41.6468 7.0954 41.7388C6.82033 41.8391 6.52388 41.8875 6.22565 41.8809C5.94542 41.8859 5.66699 41.8408 5.40771 41.7482C5.17383 41.6632 4.9637 41.5356 4.79153 41.3739C4.61582 41.2062 4.48048 41.0096 4.39347 40.7958C4.29818 40.5574 4.25113 40.3065 4.25442 40.0542C4.25055 39.8003 4.30141 39.548 4.40437 39.3103C4.49962 39.0951 4.64329 38.8986 4.82698 38.7322C5.01315 38.5691 5.23586 38.4408 5.48133 38.3555C5.74986 38.265 6.03582 38.22 6.32381 38.2228C6.59132 38.2172 6.85741 38.2582 7.1063 38.3436C7.32224 38.425 7.52052 38.538 7.6925 38.6777L7.50982 38.9004C7.4972 38.9161 7.48152 38.9297 7.46347 38.9407C7.44192 38.9535 7.41587 38.9594 7.38986 38.9573C7.36156 38.9556 7.33428 38.9474 7.31079 38.9336L7.21264 38.8743L7.07631 38.7985C7.01746 38.7704 6.95643 38.7458 6.89364 38.7251C6.81277 38.6999 6.72983 38.6801 6.64553 38.6659C6.53854 38.6487 6.42986 38.6408 6.32108 38.6422C6.1137 38.6399 5.9079 38.6737 5.7158 38.7417C5.53666 38.8046 5.37495 38.8999 5.2414 39.0212C5.10545 39.1503 5.00068 39.3018 4.93331 39.4667C4.85652 39.6553 4.81868 39.8542 4.82152 40.0542C4.81825 40.2574 4.85609 40.4595 4.93331 40.6513C4.99984 40.8147 5.10266 40.9653 5.23595 41.0943C5.36082 41.2146 5.51561 41.3086 5.68854 41.3692C5.86651 41.4333 6.05754 41.4655 6.25019 41.4639C6.36148 41.4654 6.47272 41.4591 6.58282 41.445C6.76261 41.4259 6.93507 41.3716 7.08722 41.2862C7.16353 41.2425 7.23557 41.1934 7.30261 41.1393C7.33064 41.1161 7.3675 41.1026 7.40622 41.1014Z" fill="#AFB1B8"/>
<path d="M13.7043 40.0538C13.7077 40.3052 13.6578 40.5549 13.5571 40.7906C13.4682 41.0043 13.3283 41.1993 13.1464 41.3626C12.9645 41.526 12.7449 41.654 12.502 41.7382C11.9682 41.9151 11.3781 41.9151 10.8443 41.7382C10.6029 41.6527 10.3847 41.5244 10.2036 41.3615C10.0218 41.1952 9.88083 40.9986 9.78915 40.7835C9.59274 40.3063 9.59274 39.7847 9.78915 39.3076C9.88216 39.0923 10.023 38.8951 10.2036 38.7271C10.3862 38.5694 10.6043 38.446 10.8443 38.3647C11.3774 38.1846 11.9688 38.1846 12.502 38.3647C12.7442 38.4502 12.9633 38.5784 13.1454 38.7414C13.3249 38.906 13.4648 39.1001 13.5571 39.3123C13.6581 39.5495 13.708 39.8009 13.7043 40.0538ZM13.1318 40.0538C13.1361 39.8527 13.101 39.6525 13.0282 39.4615C12.9671 39.298 12.8677 39.1472 12.7364 39.0185C12.6086 38.8968 12.4512 38.8013 12.2757 38.739C11.8878 38.6095 11.4584 38.6095 11.0706 38.739C10.895 38.8013 10.7376 38.8968 10.6098 39.0185C10.4767 39.1464 10.3763 39.2974 10.3154 39.4615C10.1766 39.8472 10.1766 40.2604 10.3154 40.6461C10.3769 40.81 10.4772 40.9609 10.6098 41.0891C10.7378 41.2101 10.8952 41.3048 11.0706 41.3663C11.4591 41.4925 11.8871 41.4925 12.2757 41.3663C12.451 41.3048 12.6084 41.2101 12.7364 41.0891C12.8672 40.9601 12.9664 40.8094 13.0282 40.6461C13.1013 40.4552 13.1364 40.2549 13.1318 40.0538Z" fill="#AFB1B8"/>
<path d="M18.0013 40.6748L18.0585 40.8074C18.0803 40.76 18.0994 40.7174 18.1212 40.6748C18.142 40.6302 18.1657 40.5867 18.1921 40.5445L19.5853 38.3439C19.6126 38.306 19.6371 38.2823 19.6644 38.2752C19.7015 38.2654 19.7402 38.2614 19.7789 38.2634H20.1906V41.8426H19.7026V39.2109C19.7026 39.1777 19.7026 39.1398 19.7026 39.0995C19.6999 39.0585 19.6999 39.0174 19.7026 38.9764L18.3012 41.2077C18.2834 41.2412 18.2549 41.2694 18.2191 41.2892C18.1833 41.3089 18.1418 41.3193 18.0994 41.3191H18.0203C17.9779 41.3196 17.9362 41.3093 17.9003 41.2896C17.8645 41.2698 17.8361 41.2413 17.8186 41.2077L16.3763 38.9622C16.3763 39.0048 16.3763 39.0474 16.3763 39.0901C16.3763 39.1327 16.3763 39.1706 16.3763 39.2038V41.8355H15.9046V38.2634H16.3163C16.355 38.2614 16.3937 38.2654 16.4308 38.2752C16.4646 38.2898 16.4916 38.314 16.5072 38.3439L17.9304 40.5469C17.9583 40.5876 17.9821 40.6304 18.0013 40.6748Z" fill="#AFB1B8"/>
<path d="M23.2443 40.4969V41.8376H22.699V38.2632H23.915C24.1445 38.2594 24.3734 38.2858 24.5939 38.3414C24.7704 38.3849 24.934 38.4608 25.0737 38.5641C25.1948 38.6609 25.2882 38.7809 25.3464 38.9146C25.4107 39.0604 25.4422 39.2157 25.4391 39.3718C25.4415 39.5285 25.4072 39.6841 25.3382 39.829C25.2726 39.9661 25.1719 40.0884 25.0437 40.1866C24.9038 40.2942 24.7394 40.3749 24.5612 40.4235C24.3489 40.4824 24.1269 40.5104 23.9041 40.5064L23.2443 40.4969ZM23.2443 40.1132H23.9041C24.0474 40.1148 24.1901 40.0964 24.3267 40.0587C24.4394 40.0258 24.5432 39.9734 24.632 39.9048C24.714 39.8392 24.7774 39.7582 24.8174 39.6679C24.8621 39.5724 24.8843 39.4701 24.8829 39.3671C24.8892 39.2677 24.8706 39.1683 24.8282 39.0759C24.7858 38.9834 24.7207 38.9001 24.6375 38.8317C24.4292 38.6904 24.1676 38.622 23.9041 38.6399H23.2443V40.1132Z" fill="#AFB1B8"/>
<path d="M30.573 41.8424H30.1422C30.099 41.8439 30.0566 41.8322 30.0223 41.8093C29.9913 41.787 29.967 41.7585 29.9514 41.7264L29.5806 40.8617H27.7184L27.334 41.7264C27.3198 41.758 27.2963 41.7858 27.2658 41.8069C27.2312 41.8312 27.1876 41.8438 27.1431 41.8424H26.7123L28.3482 38.2629H28.9153L30.573 41.8424ZM27.8738 40.5134H29.4115L28.7626 39.0565C28.713 38.9469 28.6721 38.8345 28.64 38.7201L28.5772 38.9072C28.5582 38.9641 28.5363 39.0162 28.5173 39.0589L27.8738 40.5134Z" fill="#AFB1B8"/>
<path d="M32.9287 38.2795C32.9613 38.2951 32.9893 38.317 33.0105 38.3435L35.3962 41.0418C35.3962 40.9991 35.3962 40.9565 35.3962 40.9162C35.3962 40.8759 35.3962 40.8357 35.3962 40.7978V38.263H35.8842V41.8425H35.6116C35.5728 41.8435 35.5344 41.8362 35.4998 41.8212C35.4661 41.8041 35.4365 41.7816 35.4125 41.7548L33.0296 39.0589C33.0322 39.1 33.0322 39.1411 33.0296 39.1821C33.0296 39.2224 33.0296 39.2579 33.0296 39.2911V41.8425H32.5416V38.263H32.8306C32.8643 38.2621 32.8978 38.2678 32.9287 38.2795Z" fill="#AFB1B8"/>
<path d="M39.903 40.4189V41.8402H39.3577V40.4189L37.85 38.2631H38.338C38.3801 38.2609 38.4216 38.2719 38.4553 38.2939C38.4849 38.3169 38.5098 38.3441 38.5289 38.3745L39.4722 39.765C39.5104 39.8243 39.5431 39.8787 39.5704 39.9309C39.5977 39.983 39.6195 40.0327 39.6386 40.0825L39.7094 39.9285C39.7359 39.8722 39.7669 39.8176 39.8021 39.765L40.7319 38.365C40.7514 38.337 40.7753 38.3115 40.8028 38.2892C40.8351 38.2646 40.8771 38.2519 40.92 38.2536H41.4135L39.903 40.4189Z" fill="#AFB1B8"/>
<path d="M17.7313 32.2561C17.9685 32.2822 18.2085 32.3035 18.4511 32.3225C22.13 30.8926 25.2421 28.5523 27.3986 25.5942C29.5551 22.636 30.6602 19.1912 30.5758 15.6904L26.5215 12.1678C27.3458 15.8951 26.9602 19.7482 25.4078 23.2959C23.8554 26.8437 21.1975 29.9461 17.7313 32.2561Z" fill="#AFB1B8"/>
<path d="M16.2836 32.0923L16.3927 32.1112C20.0966 29.8094 22.9205 26.5951 24.4992 22.8839C26.0779 19.1727 26.3388 15.1353 25.2483 11.2939L19.4736 6.27673C21.8093 10.4008 22.7495 15.0162 22.1847 19.5862C21.62 24.1562 19.5737 28.493 16.2836 32.0923Z" fill="#AFB1B8"/>
<path d="M35.8679 19.8266C34.8868 23.6732 32.504 27.1423 29.0735 29.7189C28.0716 30.4756 26.9909 31.1497 25.8453 31.7325C28.6388 31.0191 31.2064 29.7579 33.3502 28.046C35.4939 26.3342 37.1566 24.2175 38.2099 21.8591L35.8679 19.8266Z" fill="#AFB1B8"/>
<path d="M34.949 19.2602L31.6146 16.363C31.5508 19.6661 30.47 22.8941 28.4845 25.7115C26.499 28.5289 23.6813 30.8328 20.3242 32.3838H20.3406C21.0887 32.3836 21.8362 32.3448 22.579 32.2678C25.7164 31.1552 28.488 29.385 30.6464 27.1153C32.8049 24.8456 34.283 22.147 34.949 19.2602Z" fill="#AFB1B8"/>
<path d="M16.7662 4.16097L12.7883 0.700012C9.23216 1.89397 6.17374 3.99289 4.01331 6.72209C1.85288 9.45128 0.691089 12.6836 0.679993 15.996H0.679993C0.693321 19.656 2.1112 23.2077 4.70923 26.0889C7.30725 28.97 10.937 31.016 15.024 31.9031C18.6724 28.041 20.8085 23.2688 21.1218 18.2798C21.4351 13.2908 19.9094 8.34501 16.7662 4.16097Z" fill="#AFB1B8"/>
<path d="M44.14 18.7274C44.1256 14.3849 42.1338 10.2238 38.5996 7.15324C35.0655 4.08263 30.2763 2.35205 25.2783 2.33955C22.9687 2.33747 20.6788 2.70775 18.5248 3.4316L42.8804 24.5927C43.7143 22.7221 44.1414 20.7334 44.14 18.7274Z" fill="#AFB1B8"/>
</svg>
