<svg width="85" height="42" viewBox="0 0 85 42" fill="none" xmlns="http://www.w3.org/2000/svg">
<path d="M13.1462 13.1029H13.1433C10.7453 13.1029 8.80127 14.8305 8.80127 16.9616V16.9641C8.80127 19.0952 10.7453 20.8228 13.1433 20.8228H13.1462C15.5442 20.8228 17.4882 19.0952 17.4882 16.9641V16.9616C17.4882 14.8305 15.5442 13.1029 13.1462 13.1029Z" fill="#2196F3"/>
<path d="M45.195 11.8693C45.1882 8.90935 43.8623 6.07229 41.5074 3.97901C39.1525 1.88574 35.9604 0.706733 32.6297 0.700012V0.700012C29.298 0.705389 26.1045 1.8838 23.7484 3.97722C21.3922 6.07064 20.0655 8.90847 20.0587 11.8693V28.1922C20.0587 28.1922 45.1922 25.7045 45.195 11.8719V11.8693Z" fill="#2196F3"/>
<path d="M0 33.5495C0.00604098 35.6091 0.929149 37.5829 2.56761 39.0395C4.20607 40.4961 6.42668 41.3171 8.74418 41.3231C11.0612 41.3171 13.2814 40.4964 14.9197 39.0404C16.5581 37.5843 17.4816 35.6112 17.4884 33.5521V22.1944C17.4884 22.1944 0 23.9267 0 33.5495ZM8.74418 35.5845C8.2913 35.5845 7.84859 35.4652 7.47203 35.2415C7.09548 35.0179 6.80199 34.7001 6.62868 34.3283C6.45537 33.9564 6.41002 33.5473 6.49838 33.1525C6.58673 32.7578 6.80481 32.3952 7.12505 32.1106C7.44528 31.826 7.85328 31.6322 8.29746 31.5537C8.74164 31.4751 9.20204 31.5154 9.62045 31.6695C10.0389 31.8235 10.3965 32.0843 10.6481 32.419C10.8997 32.7536 11.034 33.1471 11.034 33.5495C11.0351 33.8174 10.9767 34.0828 10.8622 34.3306C10.7476 34.5784 10.5791 34.8036 10.3664 34.9934C10.1536 35.1832 9.90081 35.3338 9.62244 35.4365C9.34406 35.5392 9.04561 35.5921 8.74418 35.5921V35.5845Z" fill="#2196F3"/>
<path d="M26.4177 34.4638H24.7302V36.207H23.8513V31.9413H26.6286V32.6533H24.7302V33.7548H26.4177V34.4638ZM30.6423 34.1708C30.6423 34.5908 30.5681 34.9589 30.4196 35.2753C30.2712 35.5917 30.0583 35.8359 29.7809 36.0078C29.5056 36.1796 29.1891 36.2656 28.8317 36.2656C28.4782 36.2656 28.1628 36.1806 27.8854 36.0107C27.6081 35.8408 27.3932 35.5986 27.2409 35.2841C27.0886 34.9677 27.0114 34.6044 27.0095 34.1943V33.9833C27.0095 33.5634 27.0847 33.1943 27.235 32.8759C27.3874 32.5556 27.6013 32.3105 27.8766 32.1406C28.154 31.9687 28.4704 31.8828 28.8259 31.8828C29.1813 31.8828 29.4968 31.9687 29.7722 32.1406C30.0495 32.3105 30.2634 32.5556 30.4138 32.8759C30.5661 33.1943 30.6423 33.5624 30.6423 33.9804V34.1708ZM29.7516 33.9775C29.7516 33.5302 29.6716 33.1904 29.5114 32.9579C29.3513 32.7255 29.1227 32.6093 28.8259 32.6093C28.5309 32.6093 28.3034 32.7245 28.1432 32.955C27.9831 33.1835 27.902 33.5195 27.9001 33.9628V34.1708C27.9001 34.6064 27.9802 34.9443 28.1403 35.1845C28.3005 35.4247 28.5309 35.5449 28.8317 35.5449C29.1266 35.5449 29.3532 35.4296 29.5114 35.1992C29.6696 34.9667 29.7497 34.6288 29.7516 34.1855V33.9775ZM33.4929 35.0878C33.4929 34.9218 33.4343 34.7949 33.3171 34.707C33.1999 34.6171 32.989 34.5234 32.6843 34.4257C32.3796 34.3261 32.1384 34.2285 31.9606 34.1328C31.4763 33.871 31.2341 33.5185 31.2341 33.0751C31.2341 32.8447 31.2985 32.6396 31.4274 32.4599C31.5583 32.2783 31.7448 32.1367 31.987 32.0351C32.2311 31.9335 32.5046 31.8828 32.8073 31.8828C33.112 31.8828 33.3835 31.9384 33.6218 32.0497C33.86 32.1591 34.0446 32.3144 34.1755 32.5156C34.3083 32.7167 34.3747 32.9453 34.3747 33.2011H33.4958C33.4958 33.0058 33.4343 32.8544 33.3112 32.747C33.1882 32.6376 33.0153 32.5829 32.7927 32.5829C32.5778 32.5829 32.4108 32.6288 32.2917 32.7206C32.1725 32.8105 32.113 32.9296 32.113 33.0781C32.113 33.2167 32.1823 33.3329 32.321 33.4267C32.4616 33.5204 32.6677 33.6083 32.9391 33.6904C33.4391 33.8408 33.8034 34.0273 34.0319 34.2499C34.2604 34.4726 34.3747 34.7499 34.3747 35.082C34.3747 35.4511 34.235 35.7411 33.9557 35.9521C33.6765 36.1611 33.3005 36.2656 32.8278 36.2656C32.4997 36.2656 32.2009 36.206 31.9313 36.0869C31.6618 35.9658 31.4557 35.8007 31.3132 35.5917C31.1725 35.3828 31.1022 35.1406 31.1022 34.8652H31.9841C31.9841 35.3359 32.2653 35.5712 32.8278 35.5712C33.0368 35.5712 33.1999 35.5292 33.3171 35.4453C33.4343 35.3593 33.4929 35.2402 33.4929 35.0878ZM38.1833 32.6533H36.8766V36.207H35.9977V32.6533H34.7087V31.9413H38.1833V32.6533ZM41.2536 34.3583H39.5661V35.5009H41.5466V36.207H38.6872V31.9413H41.5407V32.6533H39.5661V33.6699H41.2536V34.3583ZM43.6413 34.6454H42.9411V36.207H42.0622V31.9413H43.6472C44.1511 31.9413 44.5397 32.0536 44.8132 32.2783C45.0866 32.5029 45.2233 32.8203 45.2233 33.2304C45.2233 33.5214 45.1599 33.7646 45.0329 33.9599C44.9079 34.1533 44.7175 34.3076 44.4616 34.4228L45.3845 36.166V36.207H44.4411L43.6413 34.6454ZM42.9411 33.9335H43.6501C43.8708 33.9335 44.0417 33.8779 44.1628 33.7665C44.2839 33.6533 44.3444 33.498 44.3444 33.3007C44.3444 33.0995 44.2868 32.9413 44.1716 32.8261C44.0583 32.7109 43.8835 32.6533 43.6472 32.6533H42.9411V33.9335ZM48.2673 34.704V36.207H47.3884V31.9413H49.0524C49.3727 31.9413 49.654 31.9999 49.8962 32.1171C50.1403 32.2343 50.3278 32.4013 50.4587 32.6181C50.5895 32.8329 50.655 33.0781 50.655 33.3535C50.655 33.7714 50.5114 34.1015 50.2243 34.3437C49.9391 34.5839 49.5436 34.704 49.0378 34.704H48.2673ZM48.2673 33.9921H49.0524C49.2849 33.9921 49.4616 33.9374 49.5827 33.8281C49.7057 33.7187 49.7673 33.5624 49.7673 33.3593C49.7673 33.1503 49.7057 32.9814 49.5827 32.8525C49.4597 32.7236 49.2897 32.6572 49.0729 32.6533H48.2673V33.9921ZM53.8278 34.3583H52.1403V35.5009H54.1208V36.207H51.2614V31.9413H54.1149V32.6533H52.1403V33.6699H53.8278V34.3583ZM57.9059 32.6533H56.5993V36.207H55.7204V32.6533H54.4313V31.9413H57.9059V32.6533ZM60.9763 34.3583H59.2888V35.5009H61.2692V36.207H58.4099V31.9413H61.2634V32.6533H59.2888V33.6699H60.9763V34.3583ZM63.364 34.6454H62.6638V36.207H61.7849V31.9413H63.3698C63.8737 31.9413 64.2624 32.0536 64.5358 32.2783C64.8093 32.5029 64.946 32.8203 64.946 33.2304C64.946 33.5214 64.8825 33.7646 64.7556 33.9599C64.6306 34.1533 64.4401 34.3076 64.1843 34.4228L65.1071 36.166V36.207H64.1638L63.364 34.6454ZM62.6638 33.9335H63.3727C63.5934 33.9335 63.7643 33.8779 63.8854 33.7665C64.0065 33.6533 64.0671 33.498 64.0671 33.3007C64.0671 33.0995 64.0095 32.9413 63.8942 32.8261C63.7809 32.7109 63.6061 32.6533 63.3698 32.6533H62.6638V33.9335ZM67.8288 35.0878C67.8288 34.9218 67.7702 34.7949 67.653 34.707C67.5358 34.6171 67.3249 34.5234 67.0202 34.4257C66.7155 34.3261 66.4743 34.2285 66.2966 34.1328C65.8122 33.871 65.57 33.5185 65.57 33.0751C65.57 32.8447 65.6345 32.6396 65.7634 32.4599C65.8942 32.2783 66.0807 32.1367 66.3229 32.0351C66.5671 31.9335 66.8405 31.8828 67.1432 31.8828C67.4479 31.8828 67.7194 31.9384 67.9577 32.0497C68.196 32.1591 68.3806 32.3144 68.5114 32.5156C68.6442 32.7167 68.7106 32.9453 68.7106 33.2011H67.8317C67.8317 33.0058 67.7702 32.8544 67.6472 32.747C67.5241 32.6376 67.3513 32.5829 67.1286 32.5829C66.9138 32.5829 66.7468 32.6288 66.6276 32.7206C66.5085 32.8105 66.4489 32.9296 66.4489 33.0781C66.4489 33.2167 66.5182 33.3329 66.6569 33.4267C66.7975 33.5204 67.0036 33.6083 67.2751 33.6904C67.7751 33.8408 68.1393 34.0273 68.3679 34.2499C68.5964 34.4726 68.7106 34.7499 68.7106 35.082C68.7106 35.4511 68.571 35.7411 68.2917 35.9521C68.0124 36.1611 67.6364 36.2656 67.1638 36.2656C66.8356 36.2656 66.5368 36.206 66.2673 36.0869C65.9977 35.9658 65.7917 35.8007 65.6491 35.5917C65.5085 35.3828 65.4382 35.1406 65.4382 34.8652H66.32C66.32 35.3359 66.6013 35.5712 67.1638 35.5712C67.3727 35.5712 67.5358 35.5292 67.653 35.4453C67.7702 35.3593 67.8288 35.2402 67.8288 35.0878Z" fill="#2196F3"/>
</svg>
